<svg id="b8a5c877-01e0-4540-b80f-a590eb156724" data-name="expanded" xmlns="http://www.w3.org/2000/svg" viewBox="0 0 125 125"><title>Amnesty Icons</title><path d="M43.59,32.24a7.65,7.65,0,1,1-7.65,7.65,7.66,7.66,0,0,1,7.65-7.65m0-6A13.63,13.63,0,1,0,57.22,39.89,13.64,13.64,0,0,0,43.59,26.26Z"/><path d="M63.58,60.21A3.39,3.39,0,1,1,60.2,63.6a3.39,3.39,0,0,1,3.38-3.39m0-5.61a9,9,0,1,0,9,9,9,9,0,0,0-9-9Z"/><path d="M83.16,59.66A12.56,12.56,0,1,1,95.72,47.1,12.57,12.57,0,0,1,83.16,59.66Zm0-19.12a6.56,6.56,0,1,0,6.56,6.56A6.57,6.57,0,0,0,83.16,40.54Z"/><path d="M36.55,84l-.07-.06-6.59-4.59L31.8,71.5a1,1,0,0,0-.68-1.17l-4-.93a1,1,0,0,0-1.12.75l-1.53,6.36L24,78.43a5.26,5.26,0,0,0,2,5.45l.07.05,6.52,4.55-1.14,2.73C26,88.79,22,87,20.55,86.24c-1.81-.92-2.13-1.74-1.61-4.23l3.19-17c.45-2.3.84-2.49,3.52-2.49h27a11,11,0,0,1,2.49-6H25.65c-3.7,0-8.11.75-9.39,7.36l-3.18,17c-.39,1.86-1.56,7.47,4.76,10.69,2.22,1.13,8.35,3.86,11.81,5.39a5.1,5.1,0,0,0,2.13.45,5.27,5.27,0,0,0,1.94-.38,5.19,5.19,0,0,0,2.9-2.86L39,89.75C40,87.52,38.5,85.44,36.55,84Z"/><path d="M112.17,85.17l-2.68-15.31c-1.28-6.61-5.69-7.36-9.39-7.36H74.65c0,.36,0,.72,0,1.09a10.93,10.93,0,0,1-1.16,4.91H100.1c2.68,0,3.07.18,3.52,2.49l2.69,15.29c.51,2.48.2,3.3-1.62,4.22-1.47.75-3.69,1.82-9.13,4.24L94.42,92,100,88.09l.07,0a5.25,5.25,0,0,0,2-5.45l-.46-1.92-1.37-5.48a1,1,0,0,0-1.12-.75l-4,.93a1,1,0,0,0-.68,1.17l1.74,7-5.68,4-.08,0C88.46,89,87,91.05,87.93,93.29l2.4,4.44A5.29,5.29,0,0,0,95.18,101a5.29,5.29,0,0,0,2.13-.45c3.45-1.54,7.87-3.54,10.09-4.67C113.73,92.63,112.55,87,112.17,85.17Z"/><path d="M55.36,99.37a1,1,0,0,1-1.32.51c-2.2-1-4.81-2.15-5.91-2.72-2.06-1-4.32-3.2-3.41-7.54l1.82-9.73c1-5.3,5.26-5.3,6.65-5.3H74c1.39,0,5.63,0,6.65,5.28l1.83,9.8c.9,4.28-1.36,6.44-3.42,7.49-1.09.55-3.65,1.71-5.91,2.72a1,1,0,0,1-1.32-.51l-1.62-3.66a1,1,0,0,1,.51-1.32c2.82-1.25,4.84-2.18,5.62-2.58a1.73,1.73,0,0,0,.38-.24h0s0-.21-.13-.73L74.72,81a2.87,2.87,0,0,0-.09-.37c-.13,0-.34,0-.66,0H53.19c-.32,0-.53,0-.66,0s-.06.22-.1.39l-1.82,9.78a3.42,3.42,0,0,0-.11.81,1.81,1.81,0,0,0,.35.22c.76.39,2.65,1.25,5.62,2.58A1,1,0,0,1,57,95.72Z"/></svg>