<svg xmlns="http://www.w3.org/2000/svg" width="20" height="17" viewBox="0 0 20 17">
    <g fill="none" fill-rule="evenodd">
        <g fill="#FFF">
            <path d="M1124 20234.036c-.508.827-1.186 1.565-2.034 2.214v.531c0 3.1-1.066 5.91-3.199 8.434-2.133 2.523-4.965 3.785-8.496 3.785-2.26 0-4.35-.65-6.271-1.948.452.06.777.089.975.089 1.892 0 3.587-.62 5.084-1.86-.875-.03-1.666-.317-2.373-.863-.706-.546-1.186-1.247-1.44-2.103.339.06.593.089.762.089.283 0 .65-.06 1.102-.177-.932-.207-1.716-.701-2.352-1.483-.635-.783-.953-1.69-.953-2.723v-.044c.622.354 1.243.53 1.864.53-1.214-.826-1.822-2.02-1.822-3.585 0-.738.184-1.446.551-2.125 2.175 2.804 4.986 4.294 8.433 4.471-.057-.206-.085-.531-.085-.974 0-1.21.395-2.228 1.186-3.054.791-.827 1.766-1.24 2.924-1.24s2.147.458 2.966 1.372c.848-.147 1.723-.501 2.627-1.062-.282 1.033-.89 1.83-1.822 2.39.876-.088 1.667-.31 2.373-.664z" transform="translate(-1104 -20232)"/>
        </g>
    </g>
</svg>
