<svg xmlns="http://www.w3.org/2000/svg" width="16" height="16" viewBox="0 0 16 16">
<g fill="none" fill-rule="evenodd">
        <g fill="#000" fill-rule="nonzero">
            <g>
                <path d="M8 0C3.586 0 0 3.586 0 8c0 4.335 3.463 7.87 7.768 7.994C7.844 16 7.922 16 8 16c.078 0 .156.002.232-.006C12.537 15.869 16 12.335 16 8c0-4.414-3.586-8-8-8zm-.39.835v2.872H5.36c.113-.324.236-.635.372-.914.535-1.099 1.2-1.77 1.878-1.958zm.78 0c.679.188 1.343.86 1.878 1.958.136.279.259.59.372.914H8.39V.835zm-2.481.256c-.332.38-.625.84-.878 1.36-.187.384-.356.807-.5 1.256H2.194c.912-1.231 2.21-2.162 3.713-2.616zm4.183 0c1.503.454 2.8 1.385 3.713 2.616H11.47c-.145-.449-.314-.872-.5-1.256-.254-.52-.547-.98-.878-1.36zM1.695 4.488h2.616c-.235.95-.376 2.006-.402 3.122H.793c.06-1.132.38-2.189.902-3.122zm3.427 0H7.61V7.61H4.695c.029-1.13.18-2.191.427-3.122zm3.268 0h2.488c.246.931.398 1.992.427 3.122H8.39V4.488zm3.3 0h2.615c.521.933.842 1.99.902 3.122h-3.116c-.026-1.116-.167-2.172-.402-3.122zM.792 8.39h3.116c.026 1.115.168 2.17.402 3.122H1.689C1.169 10.58.853 9.519.793 8.39zm3.902 0H7.61v3.122H5.116c-.245-.932-.392-1.994-.42-3.122zm3.695 0h2.915c-.029 1.128-.175 2.19-.42 3.122H8.39V8.39zm3.702 0h3.116c-.06 1.129-.378 2.19-.897 3.122H11.69c.234-.952.376-2.007.403-3.122zm-9.903 3.902h2.336c.145.455.317.875.506 1.263.251.516.544.977.872 1.353-1.503-.455-2.802-1.382-3.714-2.616zm3.165 0H7.61v2.872c-.679-.186-1.343-.853-1.878-1.95-.138-.284-.263-.592-.378-.922zm3.036 0h2.256c-.115.33-.24.638-.378.921-.535 1.098-1.2 1.765-1.878 1.951v-2.872zm3.086 0h2.335c-.912 1.234-2.21 2.161-3.713 2.616.327-.376.62-.838.872-1.354.189-.387.36-.807.506-1.262z" transform="translate(-1343 -16) translate(1343 16)"/>
            </g>
        </g>
    </g>
</svg>
