<svg xmlns="http://www.w3.org/2000/svg" width="20" height="20" viewBox="0 0 20 20">
    <g fill="none" fill-rule="evenodd">
        <g fill="#fff" fill-rule="nonzero">
            <g>
                <path d="M10 0C7.284 0 6.944.012 5.877.06 4.813.11 4.086.278 3.45.525c-.658.256-1.216.597-1.772 1.153S.781 2.792.525 3.45C.278 4.086.109 4.813.06 5.877.012 6.944 0 7.284 0 10s.012 3.056.06 4.123c.049 1.064.218 1.791.465 2.427.256.658.597 1.216 1.153 1.772s1.114.897 1.772 1.153c.636.247 1.363.416 2.427.465 1.067.048 1.407.06 4.123.06s3.056-.012 4.123-.06c1.064-.049 1.791-.218 2.427-.465.658-.256 1.216-.597 1.772-1.153s.897-1.114 1.153-1.772c.247-.636.416-1.363.465-2.427.048-1.067.06-1.407.06-4.123s-.012-3.056-.06-4.123c-.049-1.064-.218-1.791-.465-2.427-.256-.658-.597-1.216-1.153-1.772S17.208.781 16.55.525C15.914.278 15.187.109 14.123.06 13.056.012 12.716 0 10 0zm0 1.802c2.67 0 2.986.01 4.04.058.976.045 1.505.207 1.858.344.466.182.8.399 1.15.748.35.35.566.684.748 1.15.137.353.3.882.344 1.857.048 1.055.058 1.37.058 4.041 0 2.67-.01 2.986-.058 4.04-.045.976-.207 1.505-.344 1.858-.182.466-.399.8-.748 1.15-.35.35-.684.566-1.15.748-.353.137-.882.3-1.857.344-1.054.048-1.37.058-4.041.058-2.67 0-2.987-.01-4.04-.058-.976-.045-1.505-.207-1.858-.344-.466-.182-.8-.399-1.15-.748-.35-.35-.566-.684-.748-1.15-.137-.353-.3-.882-.344-1.857-.048-1.055-.058-1.37-.058-4.041 0-2.67.01-2.986.058-4.04.045-.976.207-1.505.344-1.858.182-.466.399-.8.748-1.15.35-.35.684-.566 1.15-.748.353-.137.882-.3 1.857-.344 1.055-.048 1.37-.058 4.041-.058zm0 3.063c-2.836 0-5.135 2.299-5.135 5.135S7.164 15.135 10 15.135s5.135-2.299 5.135-5.135S12.836 4.865 10 4.865zm0 8.468c-1.841 0-3.333-1.492-3.333-3.333 0-1.841 1.492-3.333 3.333-3.333 1.841 0 3.333 1.492 3.333 3.333 0 1.841-1.492 3.333-3.333 3.333zm6.538-8.671c0 .663-.537 1.2-1.2 1.2-.663 0-1.2-.537-1.2-1.2 0-.663.537-1.2 1.2-1.2.663 0 1.2.537 1.2 1.2z" transform="translate(-375 -14938) translate(375 14938)"/>
            </g>
        </g>
    </g>
</svg>
