<svg xmlns="http://www.w3.org/2000/svg" width="18" height="18" viewBox="0 0 18 18">
    <g fill="none" fill-rule="evenodd">
        <g fill="#FFF">
            <path d="M1062.614 20249h-8.62c-.55 0-.994-.445-.994-.994v-16.013c0-.548.445-.993.993-.993h16.014c.548 0 .993.445.993.994v16.013c0 .548-.445.993-.993.993h-4.587v-6.97h2.34l.35-2.717h-2.69v-1.734c0-.787.218-1.323 1.346-1.323h1.438v-2.43c-.248-.033-1.102-.107-2.096-.107-2.074 0-3.494 1.266-3.494 3.59v2.004h-2.345v2.716h2.345v6.971z" transform="translate(-1053 -20231)"/>
        </g>
    </g>
</svg>
