<?xml version="1.0" encoding="utf-8"?>
<!-- Generator: Adobe Illustrator 24.0.2, SVG Export Plug-In . SVG Version: 6.00 Build 0)  -->
<svg version="1.1" id="b7512887-7ed8-40f7-b3fb-2f3da988abcd"
	 xmlns="http://www.w3.org/2000/svg" xmlns:xlink="http://www.w3.org/1999/xlink" x="0px" y="0px" viewBox="0 0 125 87.5"
	 style="enable-background:new 0 0 125 87.5;" xml:space="preserve">
<title>Amnesty Icons</title>
<path d="M33,39.2c5.2,0,9.5-4.2,9.5-9.5c0-5.2-4.2-9.5-9.5-9.5c-5.2,0-9.5,4.2-9.5,9.5S27.8,39.2,33,39.2L33,39.2z M33,22.2
	c4.1,0,7.5,3.3,7.5,7.5c0,4.1-3.3,7.5-7.5,7.5s-7.5-3.3-7.5-7.5c0,0,0,0,0,0C25.5,25.6,28.9,22.2,33,22.2z"/>
<path d="M62.4,35.8c7.5,0,13.6-6.1,13.6-13.6S69.9,8.5,62.4,8.5c-7.5,0-13.6,6.1-13.6,13.6S54.9,35.8,62.4,35.8L62.4,35.8z
	 M62.4,14.5c4.2,0,7.7,3.4,7.7,7.7s-3.4,7.6-7.7,7.6s-7.7-3.4-7.7-7.6C54.8,17.9,58.2,14.5,62.4,14.5z"/>
<path d="M92.1,39.2c5.2,0,9.5-4.2,9.5-9.5s-4.2-9.5-9.5-9.5c-5.2,0-9.5,4.2-9.5,9.5S86.9,39.2,92.1,39.2L92.1,39.2z M92.1,22.2
	c4.1,0,7.5,3.3,7.5,7.5c0,4.1-3.3,7.5-7.5,7.5c-4.1,0-7.5-3.3-7.5-7.5c0,0,0,0,0,0C84.6,25.6,88,22.2,92.1,22.2z"/>
<path d="M88.4,45.8c-1.3-6.6-5.7-7.3-9.4-7.3H45.5c-3.7,0-8.1,0.8-9.4,7.4l-3.2,17c-0.4,1.9-1.6,7.5,4.8,10.7
	c2.2,1.1,8.3,3.9,11.8,5.4c2.7,1.2,5.8,0,6.9-2.7c0,0,0-0.1,0.1-0.1l2.4-4.4c0.9-2.2-0.5-4.3-2.5-5.8l-0.1-0.1l-6.6-4.6l1.9-7.9
	c0.1-0.5-0.2-1-0.7-1.2l-4-0.9c-0.5-0.1-1,0.2-1.1,0.8l-1.6,6.4l-0.5,2c-0.5,2.1,0.3,4.2,2,5.5h0.1l6.5,4.6l-1.1,2.7
	c-5.4-2.4-9.4-4.2-10.8-5c-1.8-0.9-2.1-1.7-1.6-4.2l3.2-17c0.5-2.3,0.8-2.5,3.5-2.5H79c2.7,0,3.1,0.2,3.5,2.5l3.2,17.1
	c0.5,2.4,0.2,3.2-1.6,4.1c-1.5,0.8-5.4,2.5-10.8,5l-1.1-2.7l6.5-4.6c0,0,0,0,0.1,0c1.7-1.2,2.5-3.4,2-5.5l-2-8.3
	c-0.1-0.5-0.6-0.8-1.1-0.8l-4,0.9c-0.5,0.1-0.8,0.6-0.7,1.1l1.9,7.9l-6.6,4.6L68.1,66c-1.9,1.4-2.7,4-1.7,6.2l1.6,3.9
	c1.1,2.7,4.2,3.9,6.9,2.8c0,0,0.1,0,0.1-0.1c3.4-1.5,9.6-4.3,11.8-5.4c6.3-3.2,5.2-8.9,4.8-10.6L88.4,45.8z"/>
<path d="M112.4,58.2l-2.2-11.7c-0.7-3.6-2.7-4-5.5-4H89.5c0.3,0.6,0.5,1.3,0.7,2h14.5c2.2,0,3.1,0.2,3.5,2.4l2.2,11.8
	c0.4,1.8,0.2,3-1.7,4c-1.5,0.8-5.7,2.6-8.1,3.7c-0.1,0.1-0.3,0.1-0.4,0c-0.1-0.1-0.3-0.2-0.3-0.3l-1.2-2.8c-0.1-0.2,0-0.5,0.2-0.7
	l4.9-3.4c0.8-0.6,1.2-1.7,1-2.7l-1.1-4.5c-0.1-0.5-0.6-0.9-1.1-0.8c-0.5,0.1-0.9,0.6-0.8,1.1c0,0.1,0,0.1,0,0.2l1.1,4.5
	c0.1,0.2,0,0.4-0.2,0.6l-4.9,3.4c-0.9,0.7-1.3,1.9-0.8,3l1.2,2.8c0.3,0.6,0.8,1.1,1.4,1.4c0.3,0.1,0.7,0.2,1,0.2
	c0.3,0,0.7-0.1,1-0.2c2.4-1.1,6.6-3,8.2-3.7C112.9,62.8,112.8,60.3,112.4,58.2z"/>
<path d="M16.8,46.9c0.4-2.3,1.3-2.4,3.5-2.4h14c0.2-0.7,0.4-1.4,0.7-2H20.3c-2.8,0-4.8,0.5-5.5,4.1l-2.2,11.8
	c-0.4,2-0.5,4.6,2.8,6.2c1.5,0.8,5.8,2.6,8.2,3.7c0.3,0.1,0.7,0.2,1,0.2c0.3,0,0.7-0.1,1-0.2c0.7-0.2,1.2-0.8,1.5-1.4l1.1-2.7
	c0.5-1.1,0.1-2.4-0.9-3.1l-4.9-3.4c-0.2-0.1-0.3-0.4-0.2-0.6l1-4.6c0.1-0.5-0.3-1.1-0.8-1.1c-0.5-0.1-1,0.2-1.1,0.7l-1.1,4.6
	c-0.2,1,0.2,2.1,1,2.7l4.9,3.4c0.2,0.2,0.3,0.4,0.2,0.7l-1.1,2.7c-0.1,0.3-0.4,0.4-0.7,0.3c0,0,0,0,0,0c-1.9-0.8-6.5-2.9-8.1-3.7
	c-1.9-1-2.1-2.2-1.7-4.1L16.8,46.9z"/>
</svg>
