<svg id="aa623244-10aa-464e-bdb8-9331ba166250" data-name="expanded" xmlns="http://www.w3.org/2000/svg" viewBox="0 0 125 125"><title>Amnesty Icons</title><path d="M68.17,52.63a3,3,0,0,1-3-3v-29a2,2,0,1,0-4,0V32.46a3,3,0,0,1-6,0V20.63a8,8,0,1,1,16,0v29A3,3,0,0,1,68.17,52.63Z"/><path d="M83.81,56.46a3.9,3.9,0,0,1-.58-.05,3,3,0,0,1-2.37-3.52l4.75-24.42a1.54,1.54,0,0,0-.23-1.16,1.44,1.44,0,0,0-.93-.64,1.55,1.55,0,0,0-1.78,1.2l-2,10.52a3,3,0,1,1-5.89-1.14l2-10.53a7.5,7.5,0,1,1,14.72,2.9L86.75,54A3,3,0,0,1,83.81,56.46Z"/><path d="M44.7,61.61a3,3,0,0,1-2.94-2.44L36.6,32.3a7.53,7.53,0,0,1,5.95-8.8,7.35,7.35,0,0,1,5.64,1.18,7.56,7.56,0,0,1,3.15,4.79L55.4,50.22a3,3,0,0,1-5.89,1.15L45.45,30.62a1.55,1.55,0,0,0-.66-1,1.4,1.4,0,0,0-1.1-.24,1.52,1.52,0,0,0-1,.64,1.49,1.49,0,0,0-.23,1.13L47.65,58a3,3,0,0,1-2.38,3.51A2.76,2.76,0,0,1,44.7,61.61Z"/><path d="M96.39,63a3,3,0,0,1-2.78-4.13l7.17-17.66a1,1,0,0,0-.53-1.33,1,1,0,0,0-1.32.56l-3,7.47a3,3,0,0,1-5.57-2.23l3-7.48a7,7,0,1,1,13,5.26L99.17,61.09A3,3,0,0,1,96.39,63Z"/><path d="M78.56,112.38H52.3a10.86,10.86,0,0,1-9.24-5.2L19.92,71.85a3,3,0,0,1,5-3.28l23.17,35.37a.86.86,0,0,0,.07.1,4.8,4.8,0,0,0,4.12,2.34H78.56a4.81,4.81,0,0,0,4.71-3.89l6.07-31.24A29.23,29.23,0,0,0,51.69,70,3,3,0,1,1,48,65.34a35.21,35.21,0,0,1,46.75,2.75,3,3,0,0,1,.83,2.69l-6.39,32.86A10.83,10.83,0,0,1,78.56,112.38Z"/><path d="M33.38,90a3,3,0,0,1-2.52-1.37L19.43,71a8,8,0,1,1,13.42-8.72L39,71.73a3,3,0,0,1-5,3.27l-6.11-9.42a2,2,0,1,0-3.36,2.18l11.43,17.6A3,3,0,0,1,35,89.51,3.06,3.06,0,0,1,33.38,90Z"/><path d="M82.35,78C75.63,78,69,74,65.28,67.49a1,1,0,0,1,1.75-1c3.86,6.9,11.41,10.68,18.34,9.21a1,1,0,0,1,.42,2A16.67,16.67,0,0,1,82.35,78Z"/><path d="M72.61,102.45a1,1,0,0,1-1-1A20.21,20.21,0,0,0,51.42,81.27a1,1,0,0,1,0-2,22.21,22.21,0,0,1,22.19,22.18A1,1,0,0,1,72.61,102.45Z"/></svg>