<svg id="f71eec33-95c2-4fb6-9b48-bd4152a3e5ff" data-name="expanded" xmlns="http://www.w3.org/2000/svg" viewBox="0 0 125 125"><title>Amnesty Icons</title><rect x="52" y="28.5" width="38" height="6"/><rect x="52" y="24.5" width="16" height="2"/><rect x="84" y="68.5" width="14" height="2"/><rect x="84" y="72.5" width="14" height="2"/><rect x="84" y="76.5" width="14" height="2"/><rect x="84" y="80.5" width="14" height="2"/><rect x="84" y="84.5" width="14" height="2"/><polygon points="84 50.5 84 53.5 84 55.5 84 57.5 84 59.5 84 61.5 84 63.5 84 66.5 98 66.5 98 63.5 98 61.5 98 59.5 98 57.5 98 55.5 98 53.5 98 50.5 98 48.5 84 48.5 84 50.5"/><rect x="22" y="61.5" width="30" height="6"/><rect x="22" y="68.5" width="15" height="6"/><rect x="22" y="77.5" width="32" height="2"/><rect x="22" y="82.5" width="32" height="2"/><rect x="22" y="87.5" width="32" height="2"/><rect x="22" y="92.5" width="32" height="2"/><rect x="22" y="97.5" width="32" height="2"/><path d="M49,12.5v6H44v21H20v4H16v11l-4,4v54H63v-4h4v-4h4v-7h37.29a5,5,0,0,0,4.71-5v-80ZM22,51.33V57.5H15.83ZM61,110.5H14v-51H24v-10H61Zm4-4H63v-59H23l-5,5v-7H65Zm4-4H67v-59H22v-2H69Zm2-7v-9H81v-2H71v-2H81v-2H71v-2H81v-2H71v-2H81v-2H71v-2H81v-2H71v-2H81v-2H71v-2H81v-2H71v-2H81v-2H71v-2H81v-2H71v-2H81v-2H71v-5h7v-6H52v2H46v-19h57v72a5.16,5.16,0,0,0,1,3Zm40-3a3,3,0,0,1-6,0v-74H51v-4h60Z"/></svg>